<?xml version="1.0" encoding="UTF-8"?>
<!DOCTYPE svg PUBLIC "-//W3C//DTD SVG 1.1//EN" "http://www.w3.org/Graphics/SVG/1.1/DTD/svg11.dtd">
<!-- Creator: CorelDRAW X6 -->
<svg xmlns="http://www.w3.org/2000/svg" xml:space="preserve" width="36px" height="36px" version="1.1" style="shape-rendering:geometricPrecision; text-rendering:geometricPrecision; image-rendering:optimizeQuality; fill-rule:evenodd; clip-rule:evenodd"
viewBox="0 0 1260 1260"
 xmlns:xlink="http://www.w3.org/1999/xlink">
 <defs>
  <style type="text/css">
   <![CDATA[
    .fil0 {fill:#E5261E}
   ]]>
  </style>
 </defs>
 <g id="Слой_x0020_1">
  <metadata id="CorelCorpID_0Corel-Layer"/>
  <path class="fil0" d="M630 0c334,0 607,259 629,587 0,-4 -1,-9 -1,-13l-446 -258 -447 -258c81,-37 170,-58 265,-58zm629 594c0,2 1,4 1,6 0,-2 -1,-4 -1,-6zm1 66c0,2 -1,4 -1,6 0,-2 1,-4 1,-6zm-1 13c-22,328 -295,587 -629,587 -95,0 -184,-21 -265,-58l447 -258 446 -257c0,-5 1,-9 1,-14zm-897 528c-4,-2 -7,-4 -10,-5 3,1 6,3 10,5zm-14 -7c-3,-2 -6,-3 -9,-5 3,2 6,3 9,5zm-14 -7c-3,-2 -5,-3 -8,-5 3,2 5,3 8,5zm-14 -8c-2,-1 -5,-3 -7,-4 2,1 5,3 7,4zm-13 -8c-2,-1 -5,-2 -7,-4 2,2 5,3 7,4zm-14 -8c-1,-1 -3,-2 -5,-4 2,2 4,3 5,4zm-13 -9c-1,-1 -3,-2 -5,-3 2,1 4,2 5,3zm-12 -8c-162,-114 -268,-303 -268,-516 0,-213 106,-401 268,-515l0 0 0 515 0 516 0 0zm8 -1037c1,-1 3,-2 4,-3 -1,1 -3,2 -4,3zm12 -8c2,-1 4,-2 5,-3 -1,1 -3,2 -5,3zm12 -8c2,-1 5,-2 7,-4 -2,2 -5,3 -7,4zm13 -7c3,-2 5,-3 8,-5 -3,2 -5,3 -8,5zm13 -8c2,-1 5,-3 8,-4 -3,1 -6,3 -8,4zm13 -7c3,-1 6,-3 9,-5 -3,2 -6,4 -9,5zm13 -6c3,-2 7,-4 11,-5 -4,1 -8,3 -11,5z"/>
 </g>
</svg>
